# xmcd
#
# Track frame offsets:
#  150
#  14659
#  28432
#  41532
#  55987
#  88587
#  118928
#  146238
#  182329
#  217571
#  248790
#  270178
#
# Disc length: 3885 seconds
#
# Revision: 0
# Processed by: cddbd v1.5.1PL2 Copyright (c) Steve Scherf et al.
# Submitted via: Collectorz.com_Music_Collector 6.9
#
DISCID=a50f2b0c
DTITLE=Carbon feat Ely - Shelter Me
DYEAR=2005
DGENRE=Trance
TTITLE0=Shelter Me (Original Radio Edit)
TTITLE1=Shelter Me (Radio Remix)
TTITLE2=Shelter Me (CompleXz Radio Edit)
TTITLE3=Shelter Me (Rio Klein Radio Edit)
TTITLE4=Shelter Me (Original)
TTITLE5=Shelter Me (Soren Weile Remix)
TTITLE6=Shelter Me (Soren Weile Instrumental)
TTITLE7=Shelter Me (CompleXz Remix)
TTITLE8=Shelter Me (CompleXz Instrumental)
TTITLE9=Shelter Me (Rio Klein Remix)
TTITLE10=Shelter Me (Remix Extended)
TTITLE11=Shelter Me (Remix Instrumental)
EXTD=
EXTT0=
EXTT1=
EXTT2=
EXTT3=
EXTT4=
EXTT5=
EXTT6=
EXTT7=
EXTT8=
EXTT9=
EXTT10=
EXTT11=
PLAYORDER=
